# xmcd CD database file
#
# Track frame offsets:
#	150
#	11080
#	25112
#	41174
#
# Disc length: 797 seconds
#
# Revision: 0
# Processed by: cddbd v1.5.1PL0 Copyright (c) Steve Scherf et al.
# Submitted via: CDex 1.51
#
DISCID=29031b04
DTITLE=K.M.E. - Luna
DYEAR=2003
DGENRE=Game
TTITLE0=水月
TTITLE1=葛藤
TTITLE2=夕涼み
TTITLE3=未来
EXTD=YEAR: 2003
EXTT0=
EXTT1=
EXTT2=
EXTT3=
PLAYORDER=
